HIERARCHY
ROOT mixamorig:Hips
{
	OFFSET 0.000000 104.274902 0.000000
	CHANNELS 6 Xposition Yposition Zposition Xrotation Yrotation Zrotation
	JOINT mixamorig:Spine
	{
		OFFSET 0.000000 10.181549 0.131524
		CHANNELS 6 Xposition Yposition Zposition Xrotation Yrotation Zrotation
		JOINT mixamorig:Spine1
		{
			OFFSET 0.000000 9.893990 -1.470706
			CHANNELS 3 Xrotation Yrotation Zrotation
			JOINT mixamorig:Spine2
			{
				OFFSET 0.000000 9.220787 -1.370637
				CHANNELS 3 Xrotation Yrotation Zrotation
				JOINT mixamorig:Neck
				{
					OFFSET 0.000000 16.740372 -2.049022
					CHANNELS 6 Xposition Yposition Zposition Xrotation Yrotation Zrotation
					JOINT mixamorig:Head
					{
						OFFSET 0.000000 9.617859 1.684976
						CHANNELS 6 Xposition Yposition Zposition Xrotation Yrotation Zrotation
						JOINT mixamorig:HeadTop_End
						{
							OFFSET 0.000000 22.037384 7.501072
							CHANNELS 6 Xposition Yposition Zposition Xrotation Yrotation Zrotation
							End Site
							{
								OFFSET 0.000000 23.106567 -2.828246
							}
						}
					}
				}
				JOINT mixamorig:RightShoulder
				{
					OFFSET -4.570000 11.014877 -2.160840
					CHANNELS 6 Xposition Yposition Zposition Xrotation Yrotation Zrotation
					JOINT mixamorig:RightArm
					{
						OFFSET -10.592867 -0.524796 -2.232105
						CHANNELS 3 Xrotation Yrotation Zrotation
						JOINT mixamorig:RightForeArm
						{
							OFFSET -27.841497 0.000000 -0.000002
							CHANNELS 3 Xrotation Yrotation Zrotation
							JOINT mixamorig:RightHand
							{
								OFFSET -28.328812 0.000000 -0.000001
								CHANNELS 3 Xrotation Yrotation Zrotation
								JOINT mixamorig:RightHandThumb1
								{
									OFFSET -2.464798 -1.573990 2.681911
									CHANNELS 6 Xposition Yposition Zposition Xrotation Yrotation Zrotation
									JOINT mixamorig:RightHandThumb2
									{
										OFFSET -3.244781 -1.873383 1.873376
										CHANNELS 3 Xrotation Yrotation Zrotation
										JOINT mixamorig:RightHandThumb3
										{
											OFFSET -2.646263 -1.527817 1.527818
											CHANNELS 6 Xposition Yposition Zposition Xrotation Yrotation Zrotation
											JOINT mixamorig:RightHandThumb4
											{
												OFFSET -1.994591 -1.151581 1.151575
												CHANNELS 6 Xposition Yposition Zposition Xrotation Yrotation Zrotation
												End Site
												{
													OFFSET -1.860176 -1.142715 1.365483
												}
											}
										}
									}
								}
								JOINT mixamorig:RightHandIndex1
								{
									OFFSET -9.108299 -0.517883 2.259803
									CHANNELS 6 Xposition Yposition Zposition Xrotation Yrotation Zrotation
									JOINT mixamorig:RightHandIndex2
									{
										OFFSET -3.699997 0.000000 0.000000
										CHANNELS 3 Xrotation Yrotation Zrotation
										JOINT mixamorig:RightHandIndex3
										{
											OFFSET -2.850006 0.000000 0.000000
											CHANNELS 3 Xrotation Yrotation Zrotation
											JOINT mixamorig:RightHandIndex4
											{
												OFFSET -2.772194 0.000000 0.000000
												CHANNELS 3 Xrotation Yrotation Zrotation
												End Site
												{
													OFFSET -2.772202 0.000000 -0.000484
												}
											}
										}
									}
								}
								JOINT mixamorig:RightHandMiddle1
								{
									OFFSET -9.532501 0.000000 -0.000000
									CHANNELS 6 Xposition Yposition Zposition Xrotation Yrotation Zrotation
									JOINT mixamorig:RightHandMiddle2
									{
										OFFSET -3.699997 0.000000 0.000000
										CHANNELS 3 Xrotation Yrotation Zrotation
										JOINT mixamorig:RightHandMiddle3
										{
											OFFSET -2.949997 0.000000 0.000000
											CHANNELS 3 Xrotation Yrotation Zrotation
											JOINT mixamorig:RightHandMiddle4
											{
												OFFSET -2.946594 0.000000 0.000000
												CHANNELS 3 Xrotation Yrotation Zrotation
												End Site
												{
													OFFSET -2.946602 0.000000 -0.000982
												}
											}
										}
									}
								}
								JOINT mixamorig:RightHandRing1
								{
									OFFSET -9.103600 -0.043106 -1.865100
									CHANNELS 6 Xposition Yposition Zposition Xrotation Yrotation Zrotation
									JOINT mixamorig:RightHandRing2
									{
										OFFSET -3.379303 0.000000 0.000000
										CHANNELS 3 Xrotation Yrotation Zrotation
										JOINT mixamorig:RightHandRing3
										{
											OFFSET -2.889694 0.000000 0.000000
											CHANNELS 3 Xrotation Yrotation Zrotation
											JOINT mixamorig:RightHandRing4
											{
												OFFSET -2.638802 0.000000 0.000000
												CHANNELS 3 Xrotation Yrotation Zrotation
												End Site
												{
													OFFSET -2.638802 0.000000 0.004218
												}
											}
										}
									}
								}
								JOINT mixamorig:RightHandPinky1
								{
									OFFSET -8.076698 -0.486725 -3.806299
									CHANNELS 6 Xposition Yposition Zposition Xrotation Yrotation Zrotation
									JOINT mixamorig:RightHandPinky2
									{
										OFFSET -3.600006 0.000000 0.000000
										CHANNELS 3 Xrotation Yrotation Zrotation
										JOINT mixamorig:RightHandPinky3
										{
											OFFSET -2.099998 0.000000 0.000000
											CHANNELS 3 Xrotation Yrotation Zrotation
											JOINT mixamorig:RightHandPinky4
											{
												OFFSET -2.115791 0.000000 0.000000
												CHANNELS 3 Xrotation Yrotation Zrotation
												End Site
												{
													OFFSET -2.115799 0.000000 0.000174
												}
											}
										}
									}
								}
							}
						}
					}
				}
				JOINT mixamorig:LeftShoulder
				{
					OFFSET 4.570400 11.014679 -2.160816
					CHANNELS 6 Xposition Yposition Zposition Xrotation Yrotation Zrotation
					JOINT mixamorig:LeftArm
					{
						OFFSET 10.592373 -0.524597 -2.232116
						CHANNELS 3 Xrotation Yrotation Zrotation
						JOINT mixamorig:LeftForeArm
						{
							OFFSET 27.841488 0.000000 0.000001
							CHANNELS 3 Xrotation Yrotation Zrotation
							JOINT mixamorig:LeftHand
							{
								OFFSET 28.328808 0.000000 -0.000000
								CHANNELS 3 Xrotation Yrotation Zrotation
								JOINT mixamorig:LeftHandThumb1
								{
									OFFSET 2.466103 -1.576202 2.681698
									CHANNELS 6 Xposition Yposition Zposition Xrotation Yrotation Zrotation
									JOINT mixamorig:LeftHandThumb2
									{
										OFFSET 3.243317 -1.872528 1.872530
										CHANNELS 3 Xrotation Yrotation Zrotation
										JOINT mixamorig:LeftHandThumb3
										{
											OFFSET 2.647881 -1.528763 1.528754
											CHANNELS 6 Xposition Yposition Zposition Xrotation Yrotation Zrotation
											JOINT mixamorig:LeftHandThumb4
											{
												OFFSET 1.998924 -1.154083 1.154080
												CHANNELS 6 Xposition Yposition Zposition Xrotation Yrotation Zrotation
												End Site
												{
													OFFSET 1.884041 -1.149155 1.337651
												}
											}
										}
									}
								}
								JOINT mixamorig:LeftHandIndex1
								{
									OFFSET 9.109299 -0.518005 2.259900
									CHANNELS 6 Xposition Yposition Zposition Xrotation Yrotation Zrotation
									JOINT mixamorig:LeftHandIndex2
									{
										OFFSET 3.699997 0.000000 0.000000
										CHANNELS 3 Xrotation Yrotation Zrotation
										JOINT mixamorig:LeftHandIndex3
										{
											OFFSET 2.850006 0.000000 0.000000
											CHANNELS 3 Xrotation Yrotation Zrotation
											JOINT mixamorig:LeftHandIndex4
											{
												OFFSET 2.774895 0.000000 0.000000
												CHANNELS 3 Xrotation Yrotation Zrotation
												End Site
												{
													OFFSET 2.774902 0.000000 -0.000072
												}
											}
										}
									}
								}
								JOINT mixamorig:LeftHandMiddle1
								{
									OFFSET 9.533401 0.000000 0.000000
									CHANNELS 6 Xposition Yposition Zposition Xrotation Yrotation Zrotation
									JOINT mixamorig:LeftHandMiddle2
									{
										OFFSET 3.699997 0.000000 0.000000
										CHANNELS 3 Xrotation Yrotation Zrotation
										JOINT mixamorig:LeftHandMiddle3
										{
											OFFSET 2.949997 0.000000 0.000000
											CHANNELS 3 Xrotation Yrotation Zrotation
											JOINT mixamorig:LeftHandMiddle4
											{
												OFFSET 2.952896 0.000000 0.000000
												CHANNELS 3 Xrotation Yrotation Zrotation
												End Site
												{
													OFFSET 2.952904 0.000000 0.000165
												}
											}
										}
									}
								}
								JOINT mixamorig:LeftHandRing1
								{
									OFFSET 9.104500 -0.042999 -1.865101
									CHANNELS 6 Xposition Yposition Zposition Xrotation Yrotation Zrotation
									JOINT mixamorig:LeftHandRing2
									{
										OFFSET 3.149994 0.000000 0.000000
										CHANNELS 3 Xrotation Yrotation Zrotation
										JOINT mixamorig:LeftHandRing3
										{
											OFFSET 2.950005 0.000000 0.000000
											CHANNELS 3 Xrotation Yrotation Zrotation
											JOINT mixamorig:LeftHandRing4
											{
												OFFSET 2.644302 0.000000 0.000000
												CHANNELS 3 Xrotation Yrotation Zrotation
												End Site
												{
													OFFSET 2.644302 0.000000 0.000083
												}
											}
										}
									}
								}
								JOINT mixamorig:LeftHandPinky1
								{
									OFFSET 8.077805 -0.486893 -3.806302
									CHANNELS 6 Xposition Yposition Zposition Xrotation Yrotation Zrotation
									JOINT mixamorig:LeftHandPinky2
									{
										OFFSET 3.600006 0.000000 0.000000
										CHANNELS 3 Xrotation Yrotation Zrotation
										JOINT mixamorig:LeftHandPinky3
										{
											OFFSET 2.099998 0.000000 0.000000
											CHANNELS 3 Xrotation Yrotation Zrotation
											JOINT mixamorig:LeftHandPinky4
											{
												OFFSET 2.125496 0.000000 0.000000
												CHANNELS 3 Xrotation Yrotation Zrotation
												End Site
												{
													OFFSET 2.125504 0.000000 -0.001254
												}
											}
										}
									}
								}
							}
						}
					}
				}
			}
		}
	}
	JOINT mixamorig:RightUpLeg
	{
		OFFSET -8.207800 -6.751701 -1.599544
		CHANNELS 6 Xposition Yposition Zposition Xrotation Yrotation Zrotation
		JOINT mixamorig:RightLeg
		{
			OFFSET 0.000004 -44.370152 0.345934
			CHANNELS 3 Xrotation Yrotation Zrotation
			JOINT mixamorig:RightFoot
			{
				OFFSET 0.000004 -44.423664 -3.043535
				CHANNELS 3 Xrotation Yrotation Zrotation
				JOINT mixamorig:RightToeBase
				{
					OFFSET 0.000001 -8.728691 10.710592
					CHANNELS 3 Xrotation Yrotation Zrotation
					JOINT mixamorig:RightToe_End
					{
						OFFSET 0.000000 -0.000665 9.278101
						CHANNELS 3 Xrotation Yrotation Zrotation
						End Site
						{
							OFFSET 0.000000 -0.000665 9.278103
						}
					}
				}
			}
		}
	}
	JOINT mixamorig:LeftUpLeg
	{
		OFFSET 8.207800 -6.751701 -1.599544
		CHANNELS 6 Xposition Yposition Zposition Xrotation Yrotation Zrotation
		JOINT mixamorig:LeftLeg
		{
			OFFSET 0.000004 -44.370037 0.346940
			CHANNELS 3 Xrotation Yrotation Zrotation
			JOINT mixamorig:LeftFoot
			{
				OFFSET 0.000004 -44.423611 -3.044388
				CHANNELS 3 Xrotation Yrotation Zrotation
				JOINT mixamorig:LeftToeBase
				{
					OFFSET 0.000001 -8.728690 10.710592
					CHANNELS 3 Xrotation Yrotation Zrotation
					JOINT mixamorig:LeftToe_End
					{
						OFFSET 0.000000 -0.000680 9.278101
						CHANNELS 3 Xrotation Yrotation Zrotation
						End Site
						{
							OFFSET 0.000000 -0.000680 9.278101
						}
					}
				}
			}
		}
	}
}
MOTION
Frames: 4
Frame Time: 0.033333
-1.058899 88.188812 0.619154 -5.398693 -46.329218 0.072593 -0.000000 10.181544 0.131524 9.493224 7.235740 -1.944571 2.187716 0.989890 -0.915628 2.202828 0.982775 -0.894154 0.000002 16.740351 -2.049023 0.084653 13.220555 4.538681 -0.000001 9.617846 1.684974 8.920925 20.138150 -4.130237 0.000001 22.037369 7.501075 -0.000000 -0.000000 -0.000000 -4.570000 11.014874 -2.160841 3.036134 13.027209 -5.371391 -48.713787 27.172784 83.457105 0.000280 105.988280 -0.000212 -8.345306 17.548052 8.775664 -2.464807 -1.573998 2.681909 -7.341117 13.749638 7.412343 9.855789 -44.489100 -3.903161 -2.646274 -1.527801 1.527819 -0.115744 -14.513051 -28.973891 -1.994606 -1.151567 1.151573 -0.000003 -0.000006 0.000003 -9.108313 -0.517882 2.259809 -0.124385 -2.384786 45.108874 4.500574 -4.654517 88.071137 1.723198 -3.618371 50.920119 0.000002 0.000005 -0.000000 -9.532512 0.000006 0.000002 -0.761625 -2.932902 39.031058 5.133877 -4.632756 95.881649 1.739747 -3.631691 51.181374 -0.000001 0.000000 0.000004 -9.103607 -0.043106 -1.865099 0.154762 -4.068812 39.122661 6.509704 -4.273569 113.462870 2.549574 -4.153911 63.067330 0.000002 -0.000000 0.000002 -8.076692 -0.486723 -3.806297 -4.198889 -8.025513 44.637783 4.252898 -4.639619 85.014805 6.935959 -4.062620 119.322285 0.000000 0.000000 0.000000 4.570402 11.014684 -2.160816 1.117177 3.546356 -8.633335 -53.487010 4.935505 -51.503018 0.000003 -106.358060 0.000007 1.988502 -7.706207 -15.869268 2.466113 -1.576215 2.681699 -6.141116 -11.690711 -6.761663 9.914092 42.595512 3.409791 2.647862 -1.528770 1.528755 -0.422778 8.108090 27.509109 1.998933 -1.154094 1.154079 -0.000004 0.000005 -0.000000 9.109307 -0.518027 2.259899 0.255274 3.378299 -45.814331 5.654085 5.847935 -88.067469 2.162098 4.544921 -50.866365 -0.000001 0.000002 -0.000003 9.533424 0.000004 0.000006 -0.461511 3.841660 -39.722669 6.450756 5.820548 -95.892864 2.182840 4.561679 -51.127729 0.000000 -0.000000 -0.000001 9.104520 -0.043007 -1.865102 0.469690 4.966901 -39.799437 8.181086 5.368820 -113.503025 3.200461 5.218255 -63.022961 -0.000000 0.000001 -0.000000 8.077823 -0.486885 -3.806300 -3.762472 9.063783 -45.253797 5.342524 5.829162 -85.005331 8.716895 5.103543 -119.369194 0.000001 0.000001 -0.000000 -8.207802 -6.751711 -1.599542 -25.569361 -10.897050 -27.486947 57.437212 -9.745199 -7.683598 -24.524387 -5.586045 20.269906 -0.012998 0.000022 -0.000000 -0.000000 0.000001 -0.000001 8.207799 -6.751695 -1.599544 -31.716100 8.643063 16.402650 58.914548 -6.291114 4.271534 -24.207423 -8.308030 -13.607277 -1.594043 0.000020 -0.000002 0.000000 -0.000000 0.000000 
-1.536605 88.552490 0.188600 -6.898315 -46.537323 -0.589880 -0.000000 10.181546 0.131525 8.984402 6.398673 -2.291932 3.565918 1.044949 -1.538566 3.581076 1.029442 -1.516862 0.000001 16.740389 -2.049022 0.877852 11.511702 3.787398 -0.000000 9.617853 1.684972 5.840356 20.283741 -1.795842 -0.000003 22.037369 7.501075 0.000000 0.000001 0.000001 -4.570000 11.014866 -2.160839 4.312474 15.166452 -4.170811 -48.482814 26.964591 78.040901 0.000204 107.343779 -0.000143 -10.340057 16.904705 10.119543 -2.464788 -1.574015 2.681910 -7.341117 13.749640 7.412342 9.855784 -44.489107 -3.903153 -2.646266 -1.527804 1.527814 -0.115743 -14.513051 -28.973891 -1.994586 -1.151577 1.151583 -0.000004 -0.000001 -0.000002 -9.108305 -0.517878 2.259804 -0.124383 -2.384780 45.108874 4.500575 -4.654517 88.071137 1.723198 -3.618370 50.920119 0.000001 -0.000001 0.000004 -9.532485 0.000002 -0.000000 -0.761624 -2.932899 39.031058 5.133876 -4.632757 95.881649 1.739750 -3.631690 51.181370 -0.000001 0.000003 0.000005 -9.103601 -0.043106 -1.865101 0.154763 -4.068809 39.122661 6.509707 -4.273570 113.462877 2.549573 -4.153912 63.067324 0.000000 -0.000001 0.000004 -8.076693 -0.486727 -3.806296 -4.198887 -8.025509 44.637783 4.252899 -4.639619 85.014805 6.935960 -4.062620 119.322271 -0.000003 0.000000 0.000000 4.570401 11.014680 -2.160815 0.654085 2.034851 -6.664658 -49.631033 3.785472 -52.082054 0.000028 -107.217427 0.000016 -1.576982 -6.502964 -13.359104 2.466104 -1.576207 2.681695 -6.141111 -11.690707 -6.761665 9.914093 42.595512 3.409803 2.647858 -1.528754 1.528760 -0.422774 8.108088 27.509113 1.998906 -1.154096 1.154070 0.000000 -0.000000 -0.000002 9.109273 -0.518012 2.259896 0.255271 3.378298 -45.814331 5.654082 5.847936 -88.067469 2.162099 4.544919 -50.866362 -0.000001 -0.000000 0.000001 9.533401 0.000008 -0.000006 -0.461512 3.841659 -39.722669 6.450757 5.820547 -95.892864 2.182842 4.561676 -51.127729 0.000000 -0.000000 -0.000000 9.104505 -0.043007 -1.865098 0.469688 4.966902 -39.799434 8.181088 5.368819 -113.503018 3.200461 5.218253 -63.022961 -0.000001 -0.000001 -0.000001 8.077792 -0.486882 -3.806303 -3.762474 9.063783 -45.253797 5.342521 5.829163 -85.005331 8.716896 5.103546 -119.369194 0.000000 0.000000 -0.000001 -8.207807 -6.751721 -1.599542 -24.446239 -11.106595 -27.624915 57.296182 -8.591410 -7.473855 -24.815404 -6.292057 19.265677 -0.012999 0.000022 -0.000000 -0.000000 0.000000 0.000000 8.207798 -6.751710 -1.599541 -29.843357 9.121350 15.955279 57.541263 -5.955805 4.942866 -23.753496 -8.237727 -14.466163 -1.619499 0.000009 -0.000008 -0.000000 0.000003 0.000000 
-2.243260 89.008545 -0.246740 -8.292972 -45.436447 -0.696099 -0.000000 10.181547 0.131523 8.188434 5.461041 -2.543751 5.062882 1.088482 -2.206498 5.082687 1.062155 -2.185045 0.000001 16.740368 -2.049021 2.079765 9.443771 2.638889 0.000000 9.617871 1.684971 4.225973 18.692088 1.601386 -0.000004 22.037369 7.501070 -0.000000 -0.000001 0.000002 -4.570001 11.014856 -2.160840 5.668184 17.824869 -2.393993 -45.001528 26.187154 68.957235 0.000206 110.045406 -0.000162 -14.109982 16.754285 10.093182 -2.464801 -1.574011 2.681917 -7.341116 13.749638 7.412345 9.855784 -44.489107 -3.903144 -2.646259 -1.527812 1.527825 -0.115741 -14.513049 -28.973895 -1.994582 -1.151600 1.151568 -0.000001 0.000001 0.000003 -9.108305 -0.517882 2.259808 -0.124386 -2.384787 45.108874 4.500573 -4.654520 88.071137 1.723198 -3.618373 50.920122 -0.000000 0.000002 0.000003 -9.532493 0.000006 0.000006 -0.761626 -2.932902 39.031058 5.133872 -4.632758 95.881656 1.739750 -3.631692 51.181370 -0.000001 0.000000 0.000004 -9.103611 -0.043106 -1.865095 0.154762 -4.068810 39.122661 6.509706 -4.273572 113.462877 2.549573 -4.153914 63.067330 -0.000001 -0.000001 0.000003 -8.076688 -0.486727 -3.806284 -4.198889 -8.025512 44.637783 4.252901 -4.639618 85.014805 6.935959 -4.062620 119.322271 0.000001 0.000000 0.000000 4.570401 11.014692 -2.160817 0.265823 0.802163 -4.570628 -46.566638 -0.828236 -54.693911 -0.000020 -104.775170 -0.000023 -7.018033 -7.291157 -3.809439 2.466113 -1.576217 2.681695 -6.141114 -11.690706 -6.761664 9.914094 42.595505 3.409789 2.647873 -1.528739 1.528754 -0.422781 8.108092 27.509109 1.998921 -1.154094 1.154078 -0.000001 0.000001 0.000001 9.109310 -0.518012 2.259896 0.255269 3.378302 -45.814331 5.654081 5.847935 -88.067469 2.162098 4.544923 -50.866369 0.000001 -0.000002 0.000000 9.533432 0.000012 -0.000002 -0.461509 3.841658 -39.722669 6.450754 5.820548 -95.892857 2.182842 4.561682 -51.127729 -0.000003 -0.000001 -0.000001 9.104512 -0.043007 -1.865097 0.469688 4.966904 -39.799434 8.181087 5.368819 -113.503025 3.200460 5.218253 -63.022961 0.000002 0.000000 -0.000000 8.077826 -0.486889 -3.806302 -3.762471 9.063781 -45.253801 5.342518 5.829163 -85.005331 8.716896 5.103543 -119.369194 0.000002 0.000000 -0.000000 -8.207805 -6.751705 -1.599542 -23.008114 -12.041102 -28.732424 57.162686 -6.786770 -6.609127 -25.378386 -7.726608 17.762324 -0.012998 0.000023 -0.000001 0.000000 -0.000000 -0.000000 8.207797 -6.751709 -1.599548 -27.642529 9.122060 14.124128 55.649574 -6.110450 6.461151 -23.160050 -7.410141 -15.543644 -1.453114 0.000020 0.001730 -0.000000 0.000001 0.000000 
-3.244843 89.651825 -0.468327 -10.627709 -41.922550 -0.654055 -0.000000 10.181553 0.131522 6.822779 4.894283 -2.408645 6.408175 1.400276 -2.807809 6.432450 1.362891 -2.779462 -0.000000 16.740349 -2.049021 3.723627 6.903981 0.985218 0.000001 9.617865 1.684974 6.489195 14.899979 3.398784 -0.000002 22.037369 7.501074 -0.000002 -0.000000 -0.000001 -4.570001 11.014867 -2.160841 6.678106 19.738333 0.491929 -38.335219 23.355745 55.553350 0.000207 114.710787 -0.000137 -19.456996 15.008210 12.168262 -2.464772 -1.574004 2.681905 -7.341120 13.749636 7.412335 9.855785 -44.489103 -3.903150 -2.646274 -1.527804 1.527815 -0.115739 -14.513052 -28.973895 -1.994587 -1.151586 1.151586 0.000001 -0.000000 0.000005 -9.108290 -0.517875 2.259801 -0.124388 -2.384786 45.108868 4.500570 -4.654518 88.071137 1.723198 -3.618373 50.920122 -0.000000 -0.000001 0.000002 -9.532504 0.000002 -0.000004 -0.761627 -2.932901 39.031065 5.133875 -4.632757 95.881649 1.739749 -3.631690 51.181370 -0.000000 0.000000 0.000001 -9.103578 -0.043106 -1.865107 0.154763 -4.068809 39.122661 6.509707 -4.273569 113.462877 2.549574 -4.153914 63.067330 0.000004 -0.000001 -0.000000 -8.076696 -0.486712 -3.806302 -4.198889 -8.025510 44.637779 4.252895 -4.639619 85.014805 6.935958 -4.062620 119.322285 0.000001 0.000001 -0.000001 4.570400 11.014677 -2.160815 -0.011536 0.367584 -2.350152 -44.596935 -11.049709 -60.229967 -0.000002 -94.978534 0.000024 -12.767696 -9.902891 5.623675 2.466108 -1.576215 2.681702 -6.141117 -11.690712 -6.761666 9.914090 42.595512 3.409792 2.647885 -1.528747 1.528761 -0.422779 8.108094 27.509106 1.998921 -1.154095 1.154068 -0.000002 -0.000001 0.000001 9.109314 -0.518008 2.259911 0.255274 3.378299 -45.814334 5.654078 5.847933 -88.067469 2.162098 4.544921 -50.866369 -0.000001 0.000003 -0.000002 9.533413 0.000012 -0.000006 -0.461508 3.841655 -39.722673 6.450753 5.820548 -95.892857 2.182844 4.561680 -51.127733 -0.000001 0.000001 0.000000 9.104512 -0.042999 -1.865102 0.469691 4.966902 -39.799437 8.181090 5.368819 -113.503025 3.200461 5.218256 -63.022961 0.000000 -0.000001 -0.000001 8.077801 -0.486889 -3.806298 -3.762470 9.063779 -45.253801 5.342526 5.829160 -85.005331 8.716894 5.103544 -119.369194 -0.000001 -0.000000 0.000000 -8.207800 -6.751708 -1.599545 -19.740213 -14.404755 -30.639098 56.304852 -4.785984 -5.671890 -26.037154 -10.586268 16.340606 -0.012999 0.000022 0.000000 -0.000000 0.000000 0.000000 8.207799 -6.751685 -1.599544 -24.482335 8.774713 11.229021 53.049584 -5.971484 8.320036 -22.037452 -8.513003 -16.787058 -1.567147 0.000007 -0.000004 0.000000 -0.000000 0.000000 
